<svg xmlns="http://www.w3.org/2000/svg" width="216" height="40" viewBox="0 0 216 40">
  <g fill="#E44621" fill-rule="evenodd">
    <polygon points="0 18.769 3.956 18.769 6.901 27.447 9.774 18.769 13.642 18.769 13.642 31.404 11.034 31.404 11.034 22.425 7.93 31.404 5.783 31.404 2.643 22.514 2.643 31.404 0 31.404"/>
    <path d="M19.7691109 23.8091868C18.6512828 23.8091868 17.8710995 24.5896225 17.7289659 25.8673764L21.7378788 25.8673764C21.6317441 24.7498074 21.0284521 23.8091868 19.7691109 23.8091868M19.8578669 31.6700431C17.0375386 31.6700431 15.1749054 29.7540331 15.1749054 26.8787764 15.1749054 24.0395302 17.1082951 21.9813406 19.7691109 21.9813406 22.5366822 21.9813406 24.29256 24.0041405 24.29256 27.2165306L24.29256 27.4648792 17.7289659 27.4648792C17.7643441 29.0443768 18.5271486 29.8955918 19.8752457 29.8955918 20.7981832 29.8955918 21.3654763 29.4876791 21.7378788 28.5650638L24.1504264 28.5650638C23.5831332 30.5524741 21.9333901 31.6700431 19.8578669 31.6700431M30.2276628 23.8091868C29.1098346 23.8091868 28.3296514 24.5896225 28.1875178 25.8673764L32.1964307 25.8673764C32.090296 24.7498074 31.4870039 23.8091868 30.2276628 23.8091868M30.3164187 31.6700431C27.4960904 31.6700431 25.6334573 29.7540331 25.6334573 26.8787764 25.6334573 24.0395302 27.5668469 21.9813406 30.2276628 21.9813406 32.9952341 21.9813406 34.7511119 24.0041405 34.7511119 27.2165306L34.7511119 27.4648792 28.1875178 27.4648792C28.222896 29.0443768 28.9857005 29.8955918 30.3337975 29.8955918 31.256735 29.8955918 31.8240282 29.4876791 32.1964307 28.5650638L34.6089782 28.5650638C34.0416851 30.5524741 32.391942 31.6700431 30.3164187 31.6700431M41.225888 23.9511802L39.3632548 23.9511802 39.3632548 28.2631339C39.3632548 29.1503596 39.3812542 29.5588931 40.4630835 29.5588931 40.7293513 29.5588931 40.9242419 29.5588931 41.225888 29.5228826L41.225888 31.4395134C40.53384 31.4929084 40.2681929 31.5109137 39.700279 31.5109137 37.5359998 31.5109137 36.8619513 30.9428161 36.8619513 28.7070572L36.8619513 23.9511802 35.3363424 23.9511802 35.3363424 22.2475083 36.8619513 22.2475083 36.8619513 19.4796624 39.3632548 19.4796624 39.3632548 22.2475083 41.225888 22.2475083 41.225888 23.9511802z"/>
    <polygon points="57.484 13.31 46.746 13.31 46.746 19.686 56.221 19.686 56.221 21.955 46.746 21.955 46.746 31.404 44.047 31.404 44.047 10.955 57.484 10.955"/>
    <path d="M61.2656734 23.9940824C61.2656734 27.6417035 63.0172065 29.7955073 66.0032539 29.7955073 68.8738566 29.7955073 70.5968388 27.6131434 70.5968388 23.9655223 70.5968388 20.4327625 68.8167548 18.1926575 65.9455315 18.1926575 63.0743083 18.1926575 61.2656734 20.4613226 61.2656734 23.9940824M73.0944182 23.9077813C73.0944182 28.9343583 70.4820147 31.8636309 65.9740824 31.8636309 61.4382199 31.8636309 58.7389225 28.9343583 58.7389225 24.0518235 58.7389225 19.1692887 61.5238725 16.153715 66.0032539 16.153715 70.4820147 16.153715 73.0944182 18.9966863 73.0944182 23.9077813M83.7165789 18.7670259C83.4583799 18.7384658 83.3435558 18.7384658 83.084736 18.7384658 79.0652717 18.7384658 78.3477762 21.8117806 78.3477762 25.1427571L78.3477762 31.4042479 75.9072985 31.4042479 75.9072985 16.584662 78.2329521 16.584662 78.2329521 19.7722172C79.266369 17.2738295 81.0750039 16.2394573 83.7165789 16.2394573L83.7165789 18.7670259zM100.859197 32.0931671C92.3752474 32.0931671 86.8202435 25.8037371 86.8202435 16.1113094 86.8202435 7.49547325 91.8154023.000310435836 101.117396.000310435836 107.017493.000310435836 112.960416 3.7050517 113.649361 9.95102071L110.721036 9.95102071C109.773272 5.38450957 106.026902 2.54153819 101.031123 2.54153819 94.2273292 2.54153819 89.7057422 7.96981921 89.7057422 16.1113094 89.7057422 24.2527997 94.141056 29.5947795 100.94547 29.5947795 107.103766 29.5947795 110.505663 25.3728521 111.151782 19.6434484L114.03666 19.6434484C113.391162 27.2255332 108.223457 32.0931671 100.859197 32.0931671M120.668714 13.4403816C122.261976 10.2528264 124.673903 8.70188899 128.333999 8.70188899 133.501704 8.70188899 136.085557 11.6740017 136.085557 16.7576989L136.085557 31.4040616 133.372604 31.4040616 133.372604 17.1022827C133.372604 13.3112403 131.606796 10.9848341 127.688501 10.9848341 122.649895 10.9848341 120.71154 14.947858 120.71154 19.7298116L120.71154 31.4040616 118.042035 31.4040616 118.042035.732380223 120.71154.732380223C120.71154 14.1295491 120.71154 11.7603028 120.668714 13.4403816M149.392119 20.8928905C146.592893 21.2803144 142.803077 21.9266418 142.803077 25.5457028 142.803077 28.1297707 144.784258 29.7670093 147.88513 29.7670093 151.933145 29.7670093 155.421315 27.1823205 155.421315 22.9610141L155.421315 19.3419531C154.559824 20.2900241 152.363891 20.5054666 149.392119 20.8928905L149.392119 20.8928905zM160.589021 31.2751066C159.856629 31.5333892 159.211131 31.6196904 158.435913 31.6196904 155.808614 31.6196904 155.550415 29.5950279 155.550415 27.5703653 153.74178 30.4561769 150.942554 32.0071143 147.195565 32.0071143 142.673978 32.0071143 139.961025 29.6807081 139.961025 25.8039854 139.961025 21.7546604 142.717424 19.5145554 148.186155 18.9545292 151.674325 18.6099454 153.569233 18.5236442 154.646097 17.7916365 155.205942 17.4035917 155.421315 16.8007253 155.421315 15.6806728 155.421315 12.0187717 153.181935 10.8987192 149.650318 10.8987192 145.903949 10.8987192 143.966214 12.5359578 143.621742 16.1109369L141.037889 16.1109369C141.253262 11.3724443 144.482612 8.65861424 149.951964 8.65861424 154.947743 8.65861424 158.091441 10.8552582 158.091441 15.0343454L158.091441 27.0960194C158.091441 28.4315143 158.047994 29.3361244 159.555604 29.3361244 159.900076 29.3361244 160.115449 29.3361244 160.589021 29.2069831L160.589021 31.2751066zM174.843099 11.6740638C174.541453 11.6740638 174.283254 11.6312236 174.111328 11.6312236 170.795084 11.6312236 167.909585 13.6987263 167.048714 16.8862814 166.704242 18.2217764 166.531696 19.5144312 166.531696 22.3574026L166.531696 31.4041237 163.86157 31.4041237 163.86157 9.26197733 166.402596 9.26197733 166.402596 14.5604962C168.254057 10.5111711 170.364338 9.00369471 174.843099 8.91677268L174.843099 11.6740638zM177.125181 31.4039375L179.838133 31.4039375 179.838133 9.26179107 177.125181 9.26179107 177.125181 31.4039375zM177.125181 5.0398637L179.838133 5.0398637 179.838133.603114741 177.125181.603114741 177.125181 5.0398637zM193.877025 11.4589317L189.311991 11.4589317 189.311991 25.5024281C189.311991 27.7425331 189.226338 29.2071693 192.111217 29.2071693 192.584788 29.2071693 193.101807 29.1637083 193.877025 29.078028L193.877025 31.4038133C192.886434 31.5335755 192.455689 31.5764156 191.508545 31.5764156 189.570811 31.5764156 187.417083 31.1883708 186.900685 29.034567 186.685312 28.129957 186.642486 27.4842504 186.642486 24.1669331L186.642486 11.4589317 182.72357 11.4589317 182.72357 9.26166689 186.642486 9.26166689 186.642486 2.49851178 189.311991 2.49851178 189.311991 9.26166689 193.877025 9.26166689 193.877025 11.4589317zM206.32222 32.2224947C204.384486 37.3918722 203.351069 39.8045795 199.776625 39.8045795 198.957961 39.8045795 198.183363 39.7182784 197.408146 39.5891371L197.408146 37.2192699C198.441563 37.4781734 198.743209 37.5210135 199.34588 37.5210135 201.972559 37.5210135 202.70495 34.8934846 204.08284 31.2315835L195.168765 9.26203941 198.139916 9.26203941 204.125666 24.5118894C204.900884 26.5365519 204.599859 25.8039233 205.460729 28.4314523 206.150294 26.1913473 206.408493 25.2438971 206.795792 24.2101458L212.265143 9.26203941 215.021543 9.26203941 206.32222 32.2224947z"/>
  </g>
</svg>
